<svg width="408" height="198" viewBox="0 0 408 198" fill="none" xmlns="http://www.w3.org/2000/svg">
<path d="M378 42H27.3866C23.4691 42 20.2933 45.134 20.2933 49C20.2933 52.866 23.4691 56 27.3866 56H378C381.917 56 385.093 52.866 385.093 49C385.093 45.134 381.917 42 378 42Z" fill="#A78B71"/>
<path d="M55.7599 58C68.0722 58 78.0533 46.3594 78.0533 32C78.0533 17.6406 68.0722 6 55.7599 6C43.4477 6 33.4666 17.6406 33.4666 32C33.4666 46.3594 43.4477 58 55.7599 58Z" fill="#A78B71"/>
<path d="M123.653 0H105.413C103.175 0 101.36 1.79086 101.36 4V56C101.36 58.2091 103.175 60 105.413 60H123.653C125.892 60 127.707 58.2091 127.707 56V4C127.707 1.79086 125.892 0 123.653 0Z" fill="#FF6B6B"/>
<path d="M159.12 0H140.88C138.641 0 136.827 1.79086 136.827 4V56C136.827 58.2091 138.641 60 140.88 60H159.12C161.359 60 163.173 58.2091 163.173 56V4C163.173 1.79086 161.359 0 159.12 0Z" fill="#FF6B6B"/>
<path d="M242.213 10H193.573C190.215 10 187.493 12.6863 187.493 16V44C187.493 47.3137 190.215 50 193.573 50H242.213C245.571 50 248.293 47.3137 248.293 44V16C248.293 12.6863 245.571 10 242.213 10Z" fill="#9AA0A6"/>
<path d="M217.893 42C224.609 42 230.053 36.6274 230.053 30C230.053 23.3726 224.609 18 217.893 18C211.177 18 205.733 23.3726 205.733 30C205.733 36.6274 211.177 42 217.893 42Z" fill="#ECF0F1"/>
<path d="M6.02 157.36C6.02 149.52 7.60667 142.66 10.78 136.78C13.9533 130.807 18.2933 126.187 23.8 122.92C29.4 119.653 35.6067 118.02 42.42 118.02C49.14 118.02 54.9733 119.467 59.92 122.36C64.8667 125.253 68.5533 128.893 70.98 133.28V119.28H83.86V196H70.98V181.72C68.46 186.2 64.68 189.933 59.64 192.92C54.6933 195.813 48.9067 197.26 42.28 197.26C35.4667 197.26 29.3067 195.58 23.8 192.22C18.2933 188.86 13.9533 184.147 10.78 178.08C7.60667 172.013 6.02 165.107 6.02 157.36ZM70.98 157.5C70.98 151.713 69.8133 146.673 67.48 142.38C65.1467 138.087 61.9733 134.82 57.96 132.58C54.04 130.247 49.7 129.08 44.94 129.08C40.18 129.08 35.84 130.2 31.92 132.44C28 134.68 24.8733 137.947 22.54 142.24C20.2067 146.533 19.04 151.573 19.04 157.36C19.04 163.24 20.2067 168.373 22.54 172.76C24.8733 177.053 28 180.367 31.92 182.7C35.84 184.94 40.18 186.06 44.94 186.06C49.7 186.06 54.04 184.94 57.96 182.7C61.9733 180.367 65.1467 177.053 67.48 172.76C69.8133 168.373 70.98 163.287 70.98 157.5ZM120.929 129.78V175C120.929 178.733 121.723 181.393 123.309 182.98C124.896 184.473 127.649 185.22 131.569 185.22H140.949V196H129.469C122.376 196 117.056 194.367 113.509 191.1C109.963 187.833 108.189 182.467 108.189 175V129.78H98.2494V119.28H108.189V99.96H120.929V119.28H140.949V129.78H120.929Z" fill="#A78B71"/>
<path d="M207.467 98.42V196H194.727V151.76H145.027V196H132.287V98.42H145.027V141.26H194.727V98.42H207.467ZM266.6 117.88C275.934 117.88 283.494 120.727 289.28 126.42C295.067 132.02 297.96 140.14 297.96 150.78V196H285.36V152.6C285.36 144.947 283.447 139.113 279.62 135.1C275.794 130.993 270.567 128.94 263.94 128.94C257.22 128.94 251.854 131.04 247.84 135.24C243.92 139.44 241.96 145.553 241.96 153.58V196H229.22V119.28H241.96V130.2C244.48 126.28 247.887 123.247 252.18 121.1C256.567 118.953 261.374 117.88 266.6 117.88ZM314.011 157.36C314.011 149.52 315.598 142.66 318.771 136.78C321.944 130.807 326.284 126.187 331.791 122.92C337.391 119.653 343.644 118.02 350.551 118.02C356.524 118.02 362.078 119.42 367.211 122.22C372.344 124.927 376.264 128.52 378.971 133V92.4H391.851V196H378.971V181.58C376.451 186.153 372.718 189.933 367.771 192.92C362.824 195.813 357.038 197.26 350.411 197.26C343.598 197.26 337.391 195.58 331.791 192.22C326.284 188.86 321.944 184.147 318.771 178.08C315.598 172.013 314.011 165.107 314.011 157.36ZM378.971 157.5C378.971 151.713 377.804 146.673 375.471 142.38C373.138 138.087 369.964 134.82 365.951 132.58C362.031 130.247 357.691 129.08 352.931 129.08C348.171 129.08 343.831 130.2 339.911 132.44C335.991 134.68 332.864 137.947 330.531 142.24C328.198 146.533 327.031 151.573 327.031 157.36C327.031 163.24 328.198 168.373 330.531 172.76C332.864 177.053 335.991 180.367 339.911 182.7C343.831 184.94 348.171 186.06 352.931 186.06C357.691 186.06 362.031 184.94 365.951 182.7C369.964 180.367 373.138 177.053 375.471 172.76C377.804 168.373 378.971 163.287 378.971 157.5Z" fill="#FF6B6B"/>
</svg>
